# xmcd
#
# Track frame offsets: 
#        182
#        11777
#        22447
#        35437
#        48022
#        58300
#        69875
#        81575
#        92527
#        102675
#        116445
#        128997
#        140057
#        150085
#        160262
#        169677
#        181922
#        192507
#        202210
#        213350
#        225117
#
# Disc length: 3150 seconds
#
# Revision: 0
# Processed by: cddbd v1.5.2PL0 Copyright (c) Steve Scherf et al.
# Submitted via: ExactAudioCopy v0.99pb4
#
DISCID=260c4c15
DTITLE=Various Artist - Tree Productions Inc. Masters Box
DYEAR=1995
DGENRE=Country
TTITLE0=Patsy Cline - Walkin' After Midnight
TTITLE1=Patsy Cline - Honky Tonk Merry Go Round
TTITLE2=Patsy Cline - Life's Railway To Heaven
TTITLE3=Patsy Cline - Just A Closer Walk With Thee
TTITLE4=Patsy Cline - Walking Dream
TTITLE5=Patsy Cline - Crazy Dreams
TTITLE6=Patsy Cline - A Poor Man's Roses
TTITLE7=Patsy Cline - I Can't Forget
TTITLE8=Patsy Cline - Three Cigarettes In An Ashtray
TTITLE9=Patsy Cline - A Church, A Courtroom, And Then Goodbye
TTITLE10=Jerry Wallace - In The Misty Moonlights
TTITLE11=Jerry Wallace - Primrose Lane
TTITLE12=The Champs - Tequila
TTITLE13=The Champs - Train To Nowhere
TTITLE14=The Champs - Limbo Rock
TTITLE15=The Knickerbockers - Lies
TTITLE16=The Knickerbockers - One Track Mind
TTITLE17=Jan and Dean - Heart And Soul
TTITLE18=Hank Locklin - Let Me Be The One
TTITLE19=Shondell, Troy - This Time
TTITLE20=Charlie Ryan - Hot Rod Lincoln
EXTD=
EXTT0=
EXTT1=
EXTT2=
EXTT3=
EXTT4=
EXTT5=
EXTT6=
EXTT7=
EXTT8=
EXTT9=
EXTT10=
EXTT11=
EXTT12=
EXTT13=
EXTT14=
EXTT15=
EXTT16=
EXTT17=
EXTT18=
EXTT19=
EXTT20=
PLAYORDER=
